<?xml version="1.0" encoding="utf-8"?>
<!-- Generator: Adobe Illustrator 21.1.0, SVG Export Plug-In . SVG Version: 6.00 Build 0)  -->
<svg version="1.1" id="Layer_1" xmlns="http://www.w3.org/2000/svg" xmlns:xlink="http://www.w3.org/1999/xlink" x="0px" y="0px"
	 viewBox="0 0 160.8 31.2" style="enable-background:new 0 0 160.8 31.2;" xml:space="preserve">
<g>
	<path d="M0,12.5C0,4.8,5.9-0.2,12.4-0.2c6.7,0,10.2,4.1,11.1,8.1L19,9.3c-0.6-2.3-2.5-4.9-6.7-4.9c-3.6,0-7.5,2.6-7.5,8.1
		c0,5.2,3.6,8,7.5,8c4.1,0,6.2-2.7,6.8-5l4.4,1.3c-0.9,3.7-4.4,8.3-11.2,8.3C5.6,25.1,0,20.2,0,12.5z"/>
	<path d="M26.5,24.6V-0.2h4.6v24.8H26.5z"/>
</g>
<g>
	<path d="M50.6,15.9c0,5.2-3.9,9.1-9,9.1s-9-3.8-9-9.1s3.9-9.1,9-9.1S50.6,10.6,50.6,15.9z M46,15.9c0-3.2-2.1-4.9-4.3-4.9
		c-2.3,0-4.3,1.6-4.3,4.9c0,3.2,2.1,4.9,4.3,4.9C43.9,20.8,46,19.1,46,15.9z"/>
</g>
<g>
	<path d="M57.7,16.2c0,3,2,4.8,4.3,4.8s3.5-1.5,3.9-2.8l4,1.3c-0.8,2.8-3.4,5.7-7.9,5.7c-5,0-8.9-3.8-8.9-8.9c0-5.2,3.8-8.9,8.7-8.9
		c4.6,0,7.2,2.8,7.9,5.7l-4,1.2c-0.4-1.4-1.5-2.8-3.7-2.8C59.7,11.5,57.7,13.1,57.7,16.2z"/>
	<path d="M81.9,14.9l6.9,9.8h-5.6l-4.5-6.4l-1.9,2v4.5h-4.6V0h4.6v14l5.8-6.3h6L81.9,14.9z"/>
	<path d="M93,19.1c0.1,1.3,1.1,2.6,3.1,2.6c1.5,0,2.2-0.8,2.2-1.7c0-0.8-0.5-1.4-1.8-1.6l-2.2-0.5c-3.3-0.7-4.7-2.7-4.7-5
		c0-3,2.7-5.5,6.3-5.5c4.8,0,6.4,3,6.6,4.9l-3.8,0.9c-0.1-1-0.9-2.3-2.8-2.3c-1.2,0-2.2,0.7-2.2,1.7c0,0.8,0.6,1.3,1.5,1.5l2.4,0.5
		c3.3,0.7,5,2.7,5,5.2c0,2.7-2.1,5.6-6.5,5.6c-5.1,0-6.8-3.3-7-5.2L93,19.1z"/>
	<path d="M109.9,24.6h-4.6V-0.2h4.6v9.4c1.1-1.3,2.9-1.8,4.6-1.8c4.3,0,6.3,3,6.3,6.7v10.5h-4.6v-9.8c0-1.9-0.9-3.4-3.1-3.4
		c-1.9,0-3,1.4-3.2,3.3C109.9,14.7,109.9,24.6,109.9,24.6z"/>
	<path d="M140.8,16.2c0,5.2-3.8,8.9-8.8,8.9s-8.8-3.8-8.8-8.9c0-5.2,3.8-8.9,8.8-8.9S140.8,11,140.8,16.2z M136.2,16.2
		c0-3.2-2.1-4.8-4.3-4.8s-4.3,1.6-4.3,4.8s2.1,4.8,4.3,4.8C134.2,21,136.2,19.4,136.2,16.2z"/>
	<path d="M143.4,31.1V7.7h4.4v2.1c0.8-1.3,2.6-2.4,5.2-2.4c4.9,0,7.8,3.8,7.8,8.8c0,5.1-3.2,8.9-7.9,8.9c-2.3,0-4-0.9-4.9-2.1v8.2
		L143.4,31.1L143.4,31.1z M152.1,11.5c-2.3,0-4.2,1.7-4.2,4.7s1.9,4.8,4.2,4.8s4.2-1.7,4.2-4.8C156.3,13.2,154.5,11.5,152.1,11.5z"
		/>
</g>
</svg>
