<?xml version="1.0" encoding="utf-8"?>
<!-- Generator: Adobe Illustrator 15.1.0, SVG Export Plug-In  -->
<!DOCTYPE svg PUBLIC "-//W3C//DTD SVG 1.1//EN" "http://www.w3.org/Graphics/SVG/1.1/DTD/svg11.dtd" [
	<!ENTITY ns_flows "http://ns.adobe.com/Flows/1.0/">
]>
<svg version="1.1"
	 xmlns="http://www.w3.org/2000/svg" xmlns:xlink="http://www.w3.org/1999/xlink" xmlns:a="http://ns.adobe.com/AdobeSVGViewerExtensions/3.0/"
	 x="0px" y="0px" width="700px" height="200px" viewBox="-75.996 -20.028 700 200"
	 overflow="visible" enable-background="new -75.996 -20.028 700 200" xml:space="preserve">
<defs>
</defs>
<path d="M229.313,54.009c0,4.157,1.835,6.57,4.349,6.57c4.251,0,4.347-3.862,4.347-11.881v-8.986
	C232.405,41.933,229.313,46.861,229.313,54.009 M223.033,69.566c-7.826,0-13.043-4.927-13.043-11.691
	c0-9.565,9.178-14.396,28.019-21.642v-3.381c0-6.764-1.545-9.856-5.797-9.856c-3.382,0-5.798,2.32-5.798,5.218
	c0,2.028,0.194,3.672,0.194,4.734c0,4.734-2.899,7.633-6.957,7.633c-3.865,0-6.375-2.607-6.375-6.571
	c0-8.115,8.309-14.879,21.738-14.879c7.439,0,13.333,2.03,16.908,5.316c3.768,3.574,4.154,7.729,4.154,13.527v13.428
	c0,6.957,0.871,10.339,3.671,10.339c0.58,0,1.161-0.292,1.74-0.773v3.091c-2.513,3.188-6.667,5.026-11.498,5.026
	c-5.605,0-9.373-2.61-11.113-7.636C234.144,66.861,228.927,69.566,223.033,69.566"/>
<path d="M293.245,43.962c0-12.27-0.58-17.874-6.666-17.874c-5.991,0-6.572,5.604-6.572,17.874c0,12.175,0.678,17.875,6.572,17.875
	C292.568,61.836,293.245,56.232,293.245,43.962 M290.637,13.721l-5.119-4.154c6.858-2.03,15.36-5.412,25.699-9.566v57.972
	c0,4.831,1.546,6.859,5.796,6.859h0.289v2.706h-24.25l-0.194-5.314c-3.283,4.927-7.923,7.343-14.008,7.343
	c-11.112,0-18.745-8.6-18.745-23.285c0-16.909,8.407-27.053,20.289-27.053c5.315,0,9.952,2.027,12.947,5.893v-5.893
	C293.341,16.33,292.956,15.556,290.637,13.721"/>
<path d="M330.547,0c5.313,0,9.468,4.154,9.468,9.468c0,5.316-4.25,9.47-9.468,9.47c-5.315,0-9.468-4.154-9.468-9.47
	C321.079,4.154,325.231,0,330.547,0 M319.627,32.464l-5.118-4.153c7.343-2.32,16.038-5.508,25.989-9.567v39.228
	c0,4.735,1.546,6.762,5.604,6.859v2.705h-29.855v-2.705h0.289c4.252,0,5.799-2.029,5.799-6.859v-20
	C322.335,35.072,321.947,34.3,319.627,32.464"/>
<path d="M380.716,44.349c0-14.687-0.773-21.546-7.635-21.546c-6.956,0-7.536,6.86-7.536,21.546c0,14.686,0.58,21.641,7.536,21.641
	C379.942,65.99,380.716,59.035,380.716,44.349 M345.643,44.349c0-15.073,10.82-25.12,27.438-25.12
	c16.619,0,27.536,10.143,27.536,25.12c0,14.975-10.917,25.217-27.536,25.217C356.463,69.566,345.643,59.422,345.643,44.349"/>
<path d="M172.853,34.583l-5.438,0.008V5.576h3.092c7.999,0,13.758,5.225,13.758,14.823
	C184.265,29.358,179.679,33.517,172.853,34.583 M202.714,58.579L188.53,35.863c10.558-3.84,15.25-10.345,15.25-18.343
	c0-9.917-8.745-16.636-26.98-16.636l-37.19-0.021v2.704c6.089,0.387,7.539,2.32,7.539,8.31V56.52c0,5.993-1.45,7.925-7.539,8.31
	v2.707l34.651-0.027v-2.738c-5.342-0.377-6.75-2.244-6.846-7.794V39.169l4.159,0.107l14.609,28.261h23.789v-2.766
	C207.936,64.771,203.674,60.072,202.714,58.579"/>
<path d="M36.329,75.395c-6.087,0.387-7.538,2.318-7.538,8.308v44.639c0,5.991,1.45,7.923,7.538,8.309v2.705H0v-2.705
	c6.086-0.386,7.536-2.317,7.536-8.309V83.703c0-5.989-1.45-7.921-7.536-8.308v-2.706h36.329V75.395z"/>
<path d="M38.311,139.355v-2.706h0.29c4.251,0,5.798-2.027,5.798-6.859v-17.777c0-2.608-0.292-3.863-2.707-5.507l-5.893-4.156
	c8.116-2.897,16.425-6.859,25.121-11.785v8.02c3.865-5.219,8.792-7.538,15.555-7.538c6.57,0,11.305,2.61,13.526,7.44
	c3.479-4.927,8.6-7.44,14.88-7.44c10.338,0,15.361,5.218,15.361,15.943v22.801c0,4.832,1.546,6.859,5.798,6.859h0.291v2.706h-24.253
	V107.47c0-6.185-1.158-9.081-5.506-9.081c-3.961,0-5.217,2.995-5.217,9.081v22.319c0,4.832,1.545,6.859,5.797,6.859h0.289v2.706
	H67.104v-2.706h0.289c4.252,0,5.797-2.027,5.797-6.859V107.47c0-6.185-1.159-9.081-5.507-9.081c-3.962,0-5.122,2.995-5.122,9.081
	v31.885H38.311z"/>
<path d="M145.467,125.828c0,4.156,1.837,6.57,4.349,6.57c4.249,0,4.347-3.862,4.347-11.882v-8.986
	C148.559,113.751,145.467,118.68,145.467,125.828 M139.186,141.384c-7.826,0-13.042-4.928-13.042-11.691
	c0-9.564,9.178-14.396,28.019-21.642v-3.381c0-6.764-1.546-9.856-5.797-9.856c-3.384,0-5.796,2.32-5.796,5.218
	c0,2.028,0.193,3.672,0.193,4.734c0,4.734-2.899,7.633-6.958,7.633c-3.865,0-6.377-2.608-6.377-6.571
	c0-8.115,8.31-14.878,21.739-14.878c7.439,0,13.334,2.029,16.909,5.313c3.769,3.574,4.156,7.73,4.156,13.527v13.43
	c0,6.956,0.869,10.338,3.668,10.338c0.582,0,1.162-0.291,1.741-0.773v3.092c-2.511,3.189-6.668,5.026-11.497,5.026
	c-5.604,0-9.371-2.61-11.111-7.636C150.298,138.679,145.08,141.384,139.186,141.384"/>
<path d="M210.862,107.665c0-9.179-1.836-13.432-6.858-13.432c-5.218,0-6.86,4.253-6.86,13.335c0,8.983,1.835,13.043,6.86,13.043
	C209.026,120.611,210.862,116.551,210.862,107.665 M187.674,147.277c0,4.156,5.604,8.6,15.073,8.6
	c8.792,0,13.816-3.478,13.816-7.923c0-2.897-2.222-4.831-5.797-4.831c-4.154,0-10.048,3.286-17.584,3.286
	c-1.642,0-3.382-0.29-5.121-0.869C187.771,146.214,187.674,146.794,187.674,147.277 M181.587,108.051
	c0-9.76,8.985-17.198,23.381-17.198c1.644,0,3.479,0.192,5.412,0.58c2.125-5.508,6.666-8.695,11.885-8.695
	c3.96,0,6.761,2.608,6.761,5.988c0,2.998-2.22,5.218-5.12,5.218c-3.477,0-5.989-3.188-8.406-3.188c-0.966,0-1.641,0.387-2.123,1.256
	c8.501,2.898,13.042,8.405,13.042,15.652c0,9.566-8.986,16.618-23.285,16.618c-3.768,0-7.536-0.676-11.305-2.028
	c-3.09,0.579-4.829,2.316-4.829,4.348c0,2.512,2.027,4.251,5.216,4.251c2.318,0,4.928-1.063,8.406-2.416
	c4.25-1.643,8.404-3.092,13.043-3.092c9.564,0,15.94,6.279,15.94,15.169c0,11.304-10.145,19.228-27.147,19.228
	c-14.108,0-21.643-4.254-21.643-10.434c0-2.417,0.965-4.349,3.092-5.992c-3.382-2.319-5.219-5.894-5.219-10.339
	c0-6.084,3.286-10.435,9.663-12.753C183.907,117.325,181.587,112.978,181.587,108.051"/>
<path d="M245.17,71.818c5.313,0,9.468,4.154,9.468,9.468c0,5.315-4.25,9.47-9.468,9.47c-5.314,0-9.469-4.154-9.469-9.47
	C235.701,75.973,239.855,71.818,245.17,71.818 M234.251,104.282l-5.121-4.152c7.344-2.319,16.039-5.508,25.99-9.565v39.226
	c0,4.735,1.547,6.763,5.604,6.859v2.706h-29.854v-2.706h0.289c4.252,0,5.797-2.027,5.797-6.859v-19.999
	C236.957,106.89,236.57,106.119,234.251,104.282"/>
<path d="M289.713,136.649v2.706h-29.854v-2.706h0.289c4.252,0,5.797-2.027,5.797-6.859v-17.777c0-2.608-0.289-3.863-2.706-5.506
	l-5.891-4.157c8.115-2.897,16.423-6.859,25.121-11.786v8.02c3.768-5.023,8.792-7.537,15.071-7.537
	c10.338,0,15.36,5.218,15.36,15.944v22.8c0,4.832,1.548,6.859,5.798,6.859h0.292v2.706h-24.253V107.47
	c0-6.184-1.159-9.081-5.507-9.081c-3.961,0-5.122,2.996-5.122,9.081v22.319C284.107,134.524,285.654,136.552,289.713,136.649"/>
<path d="M338.116,125.828c0,4.156,1.836,6.57,4.347,6.57c4.251,0,4.349-3.862,4.349-11.882v-8.986
	C341.207,113.751,338.116,118.68,338.116,125.828 M331.835,141.384c-7.826,0-13.044-4.928-13.044-11.691
	c0-9.564,9.18-14.396,28.021-21.642v-3.381c0-6.764-1.546-9.856-5.797-9.856c-3.382,0-5.797,2.32-5.797,5.218
	c0,2.028,0.192,3.672,0.192,4.734c0,4.734-2.898,7.633-6.957,7.633c-3.864,0-6.375-2.608-6.375-6.571
	c0-8.115,8.308-14.878,21.736-14.878c7.443,0,13.334,2.029,16.91,5.313c3.769,3.574,4.155,7.73,4.155,13.527v13.43
	c0,6.956,0.868,10.338,3.67,10.338c0.579,0,1.16-0.291,1.741-0.773v3.092c-2.513,3.189-6.667,5.026-11.5,5.026
	c-5.603,0-9.371-2.61-11.11-7.636C342.946,138.679,337.729,141.384,331.835,141.384"/>
<path d="M366.755,96.652l24.351-23.479v19.902h2.511c3.96,0,6.956-0.386,9.179-1.351l-1.448,4.928h-10.241v24.926
	c0,8.116,2.028,12.075,6.568,12.075c1.062,0,2.319-0.386,3.673-0.964v2.898c-4.348,3.862-9.566,5.795-14.88,5.795
	c-8.792,0-13.624-5.119-13.624-15.071v-0.58l0.484-29.079H366.755z"/>
<path d="M417.196,71.818c5.312,0,9.467,4.154,9.467,9.468c0,5.315-4.25,9.47-9.467,9.47c-5.315,0-9.469-4.154-9.469-9.47
	C407.728,75.973,411.881,71.818,417.196,71.818 M406.277,104.282l-5.121-4.152c7.344-2.319,16.04-5.508,25.99-9.565v39.226
	c0,4.735,1.547,6.763,5.605,6.859v2.706h-29.855v-2.706h0.289c4.25,0,5.797-2.027,5.797-6.859v-19.999
	C408.982,106.89,408.597,106.119,406.277,104.282"/>
<path d="M467.269,116.168c0-14.688-0.773-21.547-7.635-21.547c-6.953,0-7.534,6.859-7.534,21.547c0,14.685,0.581,21.64,7.534,21.64
	C466.495,137.808,467.269,130.853,467.269,116.168 M432.195,116.168c0-15.074,10.822-25.12,27.438-25.12
	c16.62,0,27.538,10.144,27.538,25.12c0,14.974-10.918,25.216-27.538,25.216C443.018,141.384,432.195,131.24,432.195,116.168"/>
<path d="M518.731,136.649v2.706h-29.854v-2.706h0.288c4.253,0,5.798-2.027,5.064-6.859v-17.777c0.733-2.608,0.443-3.863-1.971-5.506
	l-5.894-4.157c8.115-2.897,16.425-6.859,25.119-11.786v8.02c3.77-5.023,8.792-7.537,15.073-7.537c10.337,0,15.36,5.218,15.36,15.944
	v22.8c0,4.832,1.547,6.859,5.799,6.859h0.29v2.706h-24.25V107.47c0-6.184-1.161-9.081-5.51-9.081c-3.962,0-5.119,2.996-5.119,9.081
	v22.319C513.129,134.524,514.673,136.552,518.731,136.649"/>
</svg>
