<?xml version="1.0" encoding="utf-8"?>
<!-- Generator: Adobe Illustrator 15.1.0, SVG Export Plug-In  -->
<!DOCTYPE svg PUBLIC "-//W3C//DTD SVG 1.1//EN" "http://www.w3.org/Graphics/SVG/1.1/DTD/svg11.dtd" [
	<!ENTITY ns_flows "http://ns.adobe.com/Flows/1.0/">
]>
<svg version="1.1"
	 xmlns="http://www.w3.org/2000/svg" xmlns:xlink="http://www.w3.org/1999/xlink" xmlns:a="http://ns.adobe.com/AdobeSVGViewerExtensions/3.0/"
	 x="0px" y="0px" width="77px" height="16px" viewBox="-0.983 -0.696 77 16"
	 overflow="visible" enable-background="new -0.983 -0.696 77 16" xml:space="preserve">
<defs>
</defs>
<rect x="12.4" width="2.126" height="11.57"/>
<path d="M23.893,7.639c0,2.414-1.773,4.171-4.123,4.171c-2.349,0-4.123-1.757-4.123-4.171c0-2.429,1.774-4.17,4.123-4.17
	C22.119,3.469,23.893,5.21,23.893,7.639 M21.767,7.639c0-1.486-0.958-2.238-1.997-2.238c-1.038,0-1.998,0.752-1.998,2.238
	c0,1.471,0.96,2.238,1.998,2.238C20.809,9.877,21.767,9.125,21.767,7.639z"/>
<path d="M26.947,7.639c0,1.423,0.927,2.223,2.013,2.223c1.088,0,1.631-0.721,1.807-1.327l1.87,0.624
	c-0.353,1.31-1.582,2.651-3.677,2.651c-2.317,0-4.139-1.757-4.139-4.171c0-2.429,1.79-4.17,4.075-4.17
	c2.142,0,3.355,1.325,3.692,2.653L30.687,6.76C30.495,6.104,30,5.435,28.945,5.435C27.857,5.435,26.947,6.216,26.947,7.639"/>
<polyline points="38.229,7.017 41.443,11.57 38.837,11.57 36.759,8.566 35.88,9.492 35.88,11.57 33.755,11.57 33.755,0 35.88,0 
	35.88,6.631 38.597,3.708 41.378,3.708 38.229,7.017 "/>
<path d="M43.392,8.981c0.047,0.624,0.512,1.198,1.438,1.198c0.705,0,1.039-0.368,1.039-0.782c0-0.352-0.24-0.639-0.848-0.767
	l-1.037-0.24c-1.52-0.337-2.207-1.247-2.207-2.351c0-1.405,1.248-2.571,2.941-2.571c2.238,0,2.988,1.422,3.084,2.269l-1.773,0.399
	c-0.064-0.464-0.4-1.055-1.295-1.055c-0.561,0-1.006,0.336-1.006,0.783c0,0.384,0.287,0.622,0.719,0.703l1.119,0.239
	c1.549,0.319,2.332,1.263,2.332,2.414c0,1.277-0.99,2.588-3.053,2.588c-2.363,0-3.18-1.533-3.275-2.429L43.392,8.981"/>
<path d="M51.287,11.57h-2.125V0h2.125v4.363c0.51-0.608,1.373-0.864,2.125-0.864c1.998,0,2.926,1.392,2.926,3.117v4.954h-2.125
	V6.983c0-0.88-0.432-1.565-1.455-1.565c-0.896,0-1.422,0.669-1.471,1.534V11.57"/>
<path d="M65.701,7.639c0,2.414-1.773,4.171-4.121,4.171c-2.35,0-4.123-1.757-4.123-4.171c0-2.429,1.773-4.17,4.123-4.17
	C63.927,3.469,65.701,5.21,65.701,7.639 M63.578,7.639c0-1.486-0.961-2.238-1.998-2.238c-1.039,0-1.998,0.752-1.998,2.238
	c0,1.471,0.959,2.238,1.998,2.238C62.617,9.877,63.578,9.125,63.578,7.639z"/>
<path d="M66.933,14.607V3.708h2.061v0.959c0.352-0.606,1.23-1.137,2.414-1.137c2.301,0,3.627,1.76,3.627,4.093
	c0,2.382-1.486,4.14-3.707,4.14c-1.086,0-1.887-0.434-2.27-0.958v3.803H66.933 M70.992,5.435c-1.086,0-1.967,0.814-1.967,2.204
	s0.881,2.223,1.967,2.223s1.949-0.815,1.949-2.223C72.941,6.249,72.078,5.435,70.992,5.435z"/>
<path d="M0,5.913C0,2.301,2.732,0,5.769,0c3.134,0,4.747,1.918,5.195,3.755L8.886,4.41c-0.271-1.086-1.15-2.284-3.117-2.284
	c-1.693,0-3.483,1.214-3.483,3.787c0,2.413,1.693,3.739,3.516,3.739c1.935,0,2.877-1.262,3.181-2.316l2.062,0.621
	C10.611,9.7,8.981,11.81,5.801,11.81C2.636,11.81,0,9.524,0,5.913"/>
</svg>
