<?xml version="1.0" encoding="utf-8"?>
<!-- Generator: Adobe Illustrator 21.1.0, SVG Export Plug-In . SVG Version: 6.00 Build 0)  -->
<svg version="1.1" id="Layer_1" xmlns="http://www.w3.org/2000/svg" xmlns:xlink="http://www.w3.org/1999/xlink" x="0px" y="0px"
	 viewBox="0 0 69 180" style="enable-background:new 0 0 69 180;" xml:space="preserve">
<g>
	<path d="M38.8,9.5c7.7,0,12.7,5.9,12.7,12.4c0,6.7-4.1,10.2-8.1,11.1L42,28.5c2.3-0.6,4.9-2.5,4.9-6.7c0-3.6-2.6-7.5-8.1-7.5
		c-5.2,0-8,3.6-8,7.5c0,4.1,2.7,6.2,5,6.8L34.5,33c-3.7-0.9-8.3-4.4-8.3-11.2C26.2,15.1,31.1,9.5,38.8,9.5z"/>
	<path d="M26.7,36h24.8v4.6H26.7V36z"/>
</g>
<g>
	<path d="M35.4,60.1c-5.2,0-9.1-3.9-9.1-9s3.8-9,9.1-9s9.1,3.9,9.1,9S40.7,60.1,35.4,60.1z M35.4,55.5c3.2,0,4.9-2.1,4.9-4.3
		c0-2.3-1.6-4.3-4.9-4.3c-3.2,0-4.9,2.1-4.9,4.3C30.5,53.4,32.2,55.5,35.4,55.5z"/>
</g>
<g>
	<path d="M35.1,67.2c-3,0-4.8,2-4.8,4.3s1.5,3.5,2.8,3.9l-1.3,4c-2.8-0.8-5.7-3.4-5.7-7.9c0-5,3.8-8.9,8.9-8.9
		c5.2,0,8.9,3.8,8.9,8.7c0,4.6-2.8,7.2-5.7,7.9l-1.2-4c1.4-0.4,2.8-1.5,2.8-3.7C39.8,69.2,38.2,67.2,35.1,67.2z"/>
	<path d="M36.4,91.4l-9.8,6.9v-5.6l6.4-4.5l-2-1.9h-4.5v-4.6h24.8v4.6h-14l6.3,5.8v6L36.4,91.4z"/>
	<path d="M32.2,102.5c-1.3,0.1-2.6,1.1-2.6,3.1c0,1.5,0.8,2.2,1.7,2.2c0.8,0,1.4-0.5,1.6-1.8l0.5-2.2c0.7-3.3,2.7-4.7,5-4.7
		c3,0,5.5,2.7,5.5,6.3c0,4.8-3,6.4-4.9,6.6l-0.9-3.8c1-0.1,2.3-0.9,2.3-2.8c0-1.2-0.7-2.2-1.7-2.2c-0.8,0-1.3,0.6-1.5,1.5l-0.5,2.4
		c-0.7,3.3-2.7,5-5.2,5c-2.7,0-5.6-2.1-5.6-6.5c0-5.1,3.3-6.8,5.2-7L32.2,102.5z"/>
	<path d="M26.7,119.4v-4.6h24.8v4.6h-9.4c1.3,1.1,1.8,2.9,1.8,4.6c0,4.3-3,6.3-6.7,6.3H26.7v-4.6h9.8c1.9,0,3.4-0.9,3.4-3.1
		c0-1.9-1.4-3-3.3-3.2C36.6,119.4,26.7,119.4,26.7,119.4z"/>
	<path d="M35.1,150.3c-5.2,0-8.9-3.8-8.9-8.8s3.8-8.8,8.9-8.8c5.2,0,8.9,3.8,8.9,8.8S40.3,150.3,35.1,150.3z M35.1,145.7
		c3.2,0,4.8-2.1,4.8-4.3s-1.6-4.3-4.8-4.3s-4.8,2.1-4.8,4.3C30.3,143.7,31.9,145.7,35.1,145.7z"/>
	<path d="M20.2,152.9h23.4v4.4h-2.1c1.3,0.8,2.4,2.6,2.4,5.2c0,4.9-3.8,7.8-8.8,7.8c-5.1,0-8.9-3.2-8.9-7.9c0-2.3,0.9-4,2.1-4.9
		h-8.2L20.2,152.9L20.2,152.9z M39.8,161.6c0-2.3-1.7-4.2-4.7-4.2s-4.8,1.9-4.8,4.2s1.7,4.2,4.8,4.2C38.1,165.8,39.8,164,39.8,161.6
		z"/>
</g>
</svg>
