<?xml version="1.0" encoding="utf-8"?>
<!-- Generator: Adobe Illustrator 21.1.0, SVG Export Plug-In . SVG Version: 6.00 Build 0)  -->
<svg version="1.1" id="Layer_1" xmlns="http://www.w3.org/2000/svg" xmlns:xlink="http://www.w3.org/1999/xlink" x="0px" y="0px"
	 viewBox="0 0 187.3 194.8" style="enable-background:new 0 0 187.3 194.8;" xml:space="preserve">
<style type="text/css">
	.st0{fill:#FFFFFF;}
</style>
<g>
	<path class="st0" d="M89.4,0c20.9,2.3,39.9,11.3,54.7,24.9l-7.5,8.2C123.9,21.3,107.5,13.4,89.4,11V0L89.4,0z"/>
	<path class="st0" d="M89.4,183.6c18.1-2.4,34.5-10.3,47.2-22.1l7.5,8.2c-14.8,13.4-33.8,22.5-54.7,25V183.6L89.4,183.6z"/>
	<g>
		<path class="st0" d="M0,99.4c0-9,6.8-14.8,14.4-14.8c7.8,0,11.8,4.8,13,9.4l-5.2,1.6C21.5,93,19.3,90,14.4,90
			c-4.2,0-8.7,3-8.7,9.5c0,6,4.2,9.3,8.8,9.3c4.8,0,7.2-3.2,7.9-5.8l5.1,1.6c-1.1,4.3-5.1,9.6-13.1,9.6C6.6,114.1,0,108.4,0,99.4z"
			/>
		<path class="st0" d="M31,113.5V84.7h5.3v28.9H31z"/>
	</g>
	<g>
		<path class="st0" d="M59.6,103.7c0,6-4.4,10.4-10.3,10.4s-10.3-4.4-10.3-10.4c0-6.1,4.4-10.4,10.3-10.4S59.6,97.7,59.6,103.7z
			 M54.3,103.7c0-3.7-2.4-5.6-5-5.6c-2.6,0-5,1.9-5,5.6c0,3.7,2.4,5.6,5,5.6C51.9,109.3,54.3,107.4,54.3,103.7z"/>
	</g>
	<g>
		<path class="st0" d="M67.2,103.7c0,3.6,2.3,5.5,5,5.5c2.7,0,4.1-1.8,4.5-3.3l4.7,1.6c-0.9,3.3-3.9,6.6-9.2,6.6
			c-5.8,0-10.3-4.4-10.3-10.4c0-6.1,4.5-10.4,10.2-10.4c5.3,0,8.4,3.3,9.2,6.6l-4.7,1.6c-0.5-1.6-1.7-3.3-4.3-3.3
			C69.5,98.2,67.2,100.2,67.2,103.7z"/>
		<path class="st0" d="M95.4,102.2l8,11.4h-6.5l-5.2-7.5l-2.2,2.3v5.2h-5.3V84.7h5.3v16.6l6.8-7.3h6.9L95.4,102.2z"/>
		<path class="st0" d="M108.3,107.1c0.1,1.6,1.3,3,3.6,3c1.8,0,2.6-0.9,2.6-2c0-0.9-0.6-1.6-2.1-1.9l-2.6-0.6
			c-3.8-0.8-5.5-3.1-5.5-5.9c0-3.5,3.1-6.4,7.3-6.4c5.6,0,7.5,3.6,7.7,5.7l-4.4,1c-0.2-1.2-1-2.6-3.2-2.6c-1.4,0-2.5,0.8-2.5,2
			c0,1,0.7,1.6,1.8,1.8l2.8,0.6c3.9,0.8,5.8,3.2,5.8,6c0,3.2-2.5,6.5-7.6,6.5c-5.9,0-7.9-3.8-8.2-6.1L108.3,107.1z"/>
		<path class="st0" d="M128,113.5h-5.3V84.7h5.3v10.9c1.3-1.5,3.4-2.2,5.3-2.2c5,0,7.3,3.5,7.3,7.8v12.4h-5.3v-11.4
			c0-2.2-1.1-3.9-3.6-3.9c-2.2,0-3.5,1.7-3.7,3.8V113.5z"/>
		<path class="st0" d="M164,103.7c0,6-4.4,10.4-10.3,10.4s-10.3-4.4-10.3-10.4c0-6.1,4.4-10.4,10.3-10.4S164,97.7,164,103.7z
			 M158.7,103.7c0-3.7-2.4-5.6-5-5.6c-2.6,0-5,1.9-5,5.6c0,3.7,2.4,5.6,5,5.6C156.3,109.3,158.7,107.4,158.7,103.7z"/>
		<path class="st0" d="M167,121.1V93.9h5.1v2.4c0.9-1.5,3.1-2.8,6-2.8c5.7,0,9.1,4.4,9.1,10.2c0,5.9-3.7,10.3-9.3,10.3
			c-2.7,0-4.7-1.1-5.7-2.4v9.5H167z M177.2,98.2c-2.7,0-4.9,2-4.9,5.5c0,3.5,2.2,5.5,4.9,5.5c2.7,0,4.9-2,4.9-5.5
			C182,100.3,179.9,98.2,177.2,98.2z"/>
	</g>
</g>
</svg>
